# xmcd
#
# Track frame offsets: 
#        150
#        15980
#        27691
#        40817
#        54603
#        66613
#        84614
#        97620
#        109366
#        122033
#        140110
#        151954
#        166418
#        191113
#        209217
#        221071
#        247512
#        259984
#        282873
#        293800
#        309484
#        322976
#
# Disc length: 4478 seconds
#
# Revision: 0
# Processed by: cddbd v1.5.2PL0 Copyright (c) Steve Scherf et al.
# Submitted via: ExactAudioCopy v1.0b3
#
DISCID=4e117c16
DTITLE=Various Artist - Oh Happy Day
DYEAR=2010
DGENRE=Gospel
TTITLE0=The Edwin Hawkins Singers - Early In The Morning
TTITLE1=Golden Gate Quartet - Good News The Chariot's Coming
TTITLE2=Kate Smith - Sweet Hour Of Prayer
TTITLE3=The Jordanaires - My Lord, What A Mornin'
TTITLE4=Etta James - He's Got The Whole World In His Hands
TTITLE5=Harry Belafonte - Michael Row The Boat Ashore
TTITLE6=The Cannan Travelers - Gospel Train
TTITLE7=Mahalia Jackson - Didn't It Rain
TTITLE8=The Hymnus Octet - Give Me Joy In My Heart (Sing Hosanna)
TTITLE9=Cindy Walker - Great Is Thy Faithfulness
TTITLE10=The Jordanaires - I Shall Not Be Moved
TTITLE11=The Gatlin Brothers - In The Garden
TTITLE12=The Croydon Seventh Day Adventist Gospel Choir - I will Move 
TTITLE12=On Up A Little Higher
TTITLE13=Golden Gate Quartet - People Get Ready
TTITLE14=Golden Gate Quartet - Job
TTITLE15=Cissy Houston - Too Close To Heaven
TTITLE16=The Jordanaires - Put Your Hand In The Hand
TTITLE17=Sister Rosetha Tharpe - What Are They Doing In Heaven
TTITLE18=The Faith Quartet - A Wonderful Time Up There
TTITLE19=Harry Belafonte - March Down To Jordan
TTITLE20=The Jordanaires - Wade In The Water
TTITLE21=Mahalia Jackson - Oh Lord Is It?
EXTD=
EXTT0=
EXTT1=
EXTT2=
EXTT3=
EXTT4=
EXTT5=
EXTT6=
EXTT7=
EXTT8=
EXTT9=
EXTT10=
EXTT11=
EXTT12=
EXTT13=
EXTT14=
EXTT15=
EXTT16=
EXTT17=
EXTT18=
EXTT19=
EXTT20=
EXTT21=
PLAYORDER=
